<svg version="1.1" viewBox="0 0 161 298" xmlns="http://www.w3.org/2000/svg">
 <g transform="translate(-6 -6.87)">
  <path d="m37.7 304c-1.33-1.33 4.92-10.7 10.8-16.2 4.07-3.8 8.71-6.89 13.8-9.18 5.73-2.57 7.53-3.84 7.08-4.95-0.334-0.825-1.51-5.78-2.61-11-7.98-37.8 14.3-73.1 52.3-82.9l7.4-1.91-8.5-0.0738c-4.68-0.0406-11 0.582-14 1.38-7 1.86-8.49 0.669-4.46-3.56 3.95-4.15 10.2-7.73 17.7-10.1 7.18-2.31 24.3-2.79 29.2-0.83l3 1.19-3.49-3.61c-5.29-5.47-13.1-8.88-20.9-9.16-8.11-0.288-8.81-1.78-2.86-6.03 9.98-7.13 21.7-11.3 31.7-11.3 5.41 0 5.43-0.0131 3.61-2.03-3.07-3.39-11.6-7.71-19.5-9.9-14.3-3.95-30.3-2.21-45.7 4.94-4.5 2.09-8.44 3.54-8.75 3.23-1.63-1.63 0.156-3.26 7.18-6.52 11.6-5.39 19.1-7.04 31.8-7.05 9.39-8e-3 12.2 0.391 19 2.73 4.4 1.51 10.1 4.09 12.7 5.73 5.46 3.49 12.8 11.2 12.8 13.4 0 1.88-0.0316 1.88-5.98-0.0669-6.38-2.09-16.8-0.591-26.3 3.78-8.34 3.84-10.3 5.81-5.9 5.81 5.48 0 13.9 4.59 21 11.4 11 10.7 13.1 16.7 3.64 10.7-8.05-5.11-20.1-6.44-32.2-3.57-5.46 1.29-14.2 4.9-14.2 5.86 0 0.181 3.27 0.119 7.28-0.138 8.45-0.542 16.4 0.897 22.7 4.14 4.6 2.34 6.2 5.42 2.5 4.8-1.1-0.185-5.38-0.39-9.5-0.456-14.8-0.238-29.1 6.43-42.5 19.8-8.9 8.88-14.2 18.1-17.1 29.5-2.16 8.62-1.48 27.9 1.28 36.5l1.93 6 4.45-0.487c2.45-0.268 7.82-0.493 11.9-0.5 6.09-0.0104 7.54 0.287 7.8 1.6 0.268 1.38-1.32 1.69-11 2.16-11.5 0.563-17.8 2.13-26.8 6.72-5.89 3.01-14.2 11.1-17.1 16.5-2.24 4.22-3.71 5.31-5.19 3.82zm9.65-60.1c-1.46-0.907-4.94-8.68-12.9-28.8-12.1-30.6-17.6-53-17.7-71.9-0.108-16.5 2.87-25.2 12.5-36.5 9.95-11.7 10.7-14.6 6.1-23.1-2.71-4.99-2.67-6.6 0.157-5.52 2.11 0.809 6.49 10.4 6.48 14.1-0.0081 3.65-2.78 8.33-9.74 16.5-6.47 7.57-8.79 12-10.9 20.7-4.54 19.2 3.54 55.1 22.2 98.7 5.86 13.7 6.81 17.7 3.71 15.8zm36-167c-0.817-2.13 2.39-4.78 10.2-8.45 6.06-2.84 16.2-5.86 20-5.93 1.76-0.035 1.58-0.437-1.33-2.92-4.72-4.04-14.9-8.86-21.5-10.2-3.59-0.721-5.6-1.63-5.6-2.52 0-1.83 7.36-4.94 15.2-6.43 13.2-2.5 13.1-2.39 4.77-4.32-4.12-0.959-11.8-1.97-17-2.24-5.22-0.274-10.1-0.697-10.9-0.939-3.09-0.979 4.16-6.24 13.8-10 6.48-2.54-14.2-0.996-21.5 1.6-9.21 3.31-10.5 3.51-10.5 1.63 0-2.69 6.08-8.39 13-12.2l6.5-3.56-5.35 0.616c-9.92 1.14-29.9 9.94-34.1 15-1.58 1.91-4 1.95-4 0.0768 0-4.23 18.3-14.2 32-17.5 11.3-2.7 30.3-2.95 29.8-0.384-0.227 1.17-2.24 2.05-6.75 2.97-6.04 1.23-21.9 7.9-20.9 8.83 0.233 0.233 2.44-0.0777 4.9-0.69 2.46-0.613 10.3-1.11 17.5-1.1 17.8 0.0227 24.7 2.83 12.2 5.01-6.92 1.21-17.8 5.02-17.8 6.23 0 0.429 3.49 1.05 7.75 1.38 11.9 0.926 34.8 8.27 34.8 11.2 0 0.546-5.92 0.979-14 1.02-10.3 0.0561-14.9 0.483-17.5 1.62l-3.5 1.54 4 1.28c7.74 2.48 26.9 15.2 26.2 17.4-0.225 0.675-3.1 1.2-7.08 1.3-3.68 0.0893-9.72 1.09-13.4 2.23-7.22 2.23-17.2 7.52-17.2 9.12 0 1.61-2.01 1.11-2.7-0.676zm-77.3-15.8c0-1.66 0.954-1.93 13.1-3.74l8.63-1.28-7.87-10c-4.33-5.5-7.74-10.4-7.57-10.9 0.82-2.56 3.02-0.667 11.5 9.9 8.26 10.3 10.7 14.5 8.45 14.6-0.412 0.0174-5.25 0.684-10.8 1.48-12.9 1.87-15.5 1.87-15.5 0.00678zm28.7-23.1c-2.46-2.46 0.837-6.97 4.3-5.88 3.19 1.01 2.38 5.89-1.05 6.29-1.4 0.163-2.86-0.0248-3.25-0.417z"/>
 </g>
</svg>
