<?xml version="1.0" standalone="no"?>
<!DOCTYPE svg PUBLIC "-//W3C//DTD SVG 20010904//EN"
 "http://www.w3.org/TR/2001/REC-SVG-20010904/DTD/svg10.dtd">
<svg version="1.0" xmlns="http://www.w3.org/2000/svg"
 width="700.000000pt" height="700.000000pt" viewBox="0 0 700.000000 700.000000"
 preserveAspectRatio="xMidYMid meet">
<metadata>
Created by potrace 1.14, written by Peter Selinger 2001-2017
</metadata>
<g transform="translate(0.000000,700.000000) scale(0.100000,-0.100000)"
fill="#000000" stroke="none">
<path d="M3309 6946 c-2 -2 -47 -6 -101 -10 -86 -5 -279 -30 -318 -41 -8 -2
-31 -6 -51 -9 -64 -10 -311 -76 -429 -115 -961 -322 -1740 -1061 -2118 -2011
-125 -314 -196 -616 -231 -985 -9 -91 -7 -544 3 -600 3 -16 8 -55 11 -85 81
-754 432 -1485 975 -2030 319 -320 649 -547 1080 -743 183 -83 565 -202 713
-222 16 -2 40 -6 55 -9 15 -3 41 -8 57 -10 17 -3 44 -7 60 -10 169 -27 223
-31 475 -31 292 0 400 6 545 30 147 24 154 25 300 61 638 158 1159 451 1630
918 193 192 304 328 457 566 176 273 314 572 407 880 39 132 82 311 96 400 4
25 9 54 11 65 2 10 6 37 9 60 3 22 8 51 10 65 23 136 23 639 0 825 -15 116
-21 153 -45 270 -6 28 -12 59 -14 70 -13 63 -60 235 -92 330 -393 1191 -1439
2100 -2669 2320 -43 8 -221 33 -280 40 -58 7 -540 17 -546 11z m546 -79 c11
-3 49 -8 85 -12 36 -3 72 -8 80 -10 8 -2 30 -7 48 -10 17 -3 47 -7 65 -11 17
-3 86 -18 152 -34 639 -153 1166 -449 1631 -916 336 -337 574 -701 747 -1139
74 -189 148 -434 171 -570 3 -16 10 -53 15 -82 6 -29 13 -74 16 -100 3 -26 8
-57 10 -68 27 -129 27 -709 -1 -849 -2 -12 -6 -41 -9 -66 -3 -25 -8 -56 -11
-70 -2 -14 -7 -38 -10 -55 -42 -236 -135 -536 -243 -775 -365 -816 -1069
-1472 -1916 -1785 -226 -83 -461 -144 -664 -170 -25 -4 -60 -8 -77 -10 -150
-20 -644 -27 -779 -12 -693 79 -1328 352 -1840 790 -121 104 -296 278 -381
379 -299 355 -513 735 -648 1153 -38 120 -82 280 -91 335 -3 19 -10 53 -15 75
-9 38 -27 148 -35 210 -27 194 -27 686 0 856 2 13 6 47 10 74 3 28 22 123 41
213 105 491 323 961 627 1351 530 680 1249 1116 2092 1270 151 27 166 29 280
37 55 4 101 8 103 9 5 4 527 -4 547 -8z"/>
<path d="M3338 6755 c-2 -1 -52 -5 -113 -8 -229 -13 -579 -92 -860 -195 -205
-75 -470 -211 -653 -334 -205 -137 -317 -231 -514 -429 -436 -438 -726 -957
-862 -1539 -14 -60 -19 -84 -31 -150 -3 -14 -7 -36 -10 -50 -34 -171 -43 -309
-40 -585 2 -148 6 -290 9 -315 4 -25 8 -63 11 -85 12 -99 66 -357 90 -435 8
-25 28 -89 44 -142 96 -311 304 -712 497 -958 145 -184 375 -424 529 -551 50
-41 92 -76 95 -80 16 -18 222 -158 320 -216 291 -176 701 -335 995 -388 126
-22 208 -36 236 -40 19 -2 59 -8 89 -12 68 -10 435 -10 591 0 609 38 1240 278
1739 660 208 160 446 396 601 597 328 423 538 903 639 1462 31 172 35 230 35
538 0 302 -3 349 -35 531 -160 917 -663 1685 -1440 2198 -349 231 -766 398
-1185 476 -49 10 -97 19 -106 20 -9 2 -40 6 -70 10 -30 4 -70 9 -89 12 -35 5
-507 12 -512 8z m465 -39 c101 -8 168 -16 187 -21 8 -2 33 -7 55 -10 52 -7 57
-8 197 -39 454 -103 927 -331 1298 -626 141 -112 387 -358 500 -500 245 -307
409 -607 541 -989 58 -168 103 -351 144 -586 27 -159 28 -814 0 -897 -2 -7 -6
-31 -9 -53 -15 -123 -73 -356 -131 -531 -317 -948 -1081 -1717 -2025 -2036
-102 -34 -300 -89 -370 -101 -14 -3 -61 -12 -105 -20 -44 -9 -107 -18 -140
-22 -33 -4 -71 -8 -85 -11 -145 -24 -510 -23 -700 1 -557 72 -993 229 -1420
511 -305 201 -618 500 -852 815 -167 224 -327 529 -427 813 -27 77 -76 238
-86 286 -2 8 -11 45 -19 82 -24 98 -55 289 -63 382 -16 174 -8 650 12 771 6
33 33 178 39 211 74 375 257 810 479 1139 341 508 835 926 1376 1164 173 77
393 153 537 186 85 20 265 55 307 60 29 4 54 8 57 10 3 2 48 6 100 10 52 4 96
8 97 9 5 4 434 -2 506 -8z"/>
<path d="M3427 6500 c-74 -23 -81 -54 -79 -368 2 -250 2 -254 25 -273 51 -46
115 -59 175 -38 22 7 35 22 47 52 20 50 28 176 11 178 -15 2 -86 2 -114 0 -18
-1 -23 -6 -20 -23 2 -19 11 -24 43 -28 l40 -5 -1 -49 c-1 -59 -21 -78 -79 -74
-62 5 -67 22 -73 294 l-5 232 26 26 c33 33 78 34 106 4 18 -19 26 -44 34 -108
1 -8 12 -16 23 -18 25 -4 35 22 27 71 -14 95 -101 154 -186 127z"/>
<path d="M3855 6480 c-4 -7 -11 -39 -20 -105 -3 -22 -10 -65 -15 -95 -5 -30
-12 -75 -15 -100 -3 -25 -10 -70 -15 -100 -5 -30 -11 -71 -14 -90 -3 -19 -10
-68 -16 -108 -7 -41 -10 -75 -8 -77 4 -4 30 -9 103 -19 126 -18 123 -18 135 3
13 26 -4 36 -79 45 -75 10 -93 21 -87 54 2 15 5 40 5 55 l1 29 69 -6 c54 -4
72 -2 82 10 16 19 3 31 -41 39 -97 15 -91 11 -85 68 3 29 8 63 10 77 2 14 7
48 10 75 2 28 7 59 9 70 2 11 7 42 10 70 4 27 8 51 10 52 2 2 27 -1 56 -7 99
-19 148 -9 121 24 -12 14 -36 20 -126 32 -87 11 -95 11 -100 4z"/>
<path d="M2956 6449 c-17 -11 -18 -23 -11 -248 4 -130 8 -256 10 -281 2 -25 4
-71 6 -102 3 -70 9 -82 33 -65 14 10 20 31 23 83 6 106 8 111 48 117 42 7 65
0 65 -19 0 -8 12 -43 26 -79 20 -50 31 -65 46 -65 18 0 20 5 14 38 -8 49 -40
148 -120 372 -100 279 -97 273 -140 249z m74 -244 c24 -54 65 -184 59 -189 -2
-2 -22 -7 -44 -10 l-40 -7 -2 138 c0 76 1 131 4 123 3 -8 13 -33 23 -55z"/>
<path d="M4339 6373 c-8 -10 -20 -29 -27 -43 -20 -42 -192 -563 -192 -582 0
-11 7 -18 20 -18 27 0 44 38 124 275 l65 190 1 -205 c3 -315 5 -339 41 -340
15 0 209 577 212 630 1 25 -2 35 -15 38 -18 4 -58 -93 -129 -313 -23 -71 -45
-133 -48 -137 -3 -4 -6 50 -6 120 0 206 -9 380 -21 392 -7 7 -15 5 -25 -7z"/>
<path d="M2617 6368 c-22 -17 -34 -89 -42 -269 -4 -79 -9 -146 -11 -148 -4 -4
-10 10 -74 174 -28 71 -58 137 -66 146 -20 22 -50 18 -45 -7 10 -58 230 -629
242 -631 8 -2 20 1 28 6 11 7 10 20 -8 79 -22 73 -26 102 -14 102 4 0 51 -25
105 -56 74 -42 105 -54 124 -50 47 12 33 26 -122 120 -101 61 -111 69 -109 94
2 15 6 95 10 177 3 83 8 178 11 213 6 63 1 72 -29 50z"/>
<path d="M1950 6055 c0 -10 156 -78 290 -126 24 -9 24 -9 5 7 -56 44 -295 141
-295 119z"/>
<path d="M4950 6053 c-8 -3 -44 -19 -79 -35 -35 -16 -86 -38 -112 -50 -65 -28
-63 -42 4 -19 166 59 275 112 222 110 -11 0 -27 -3 -35 -6z"/>
<path d="M1855 5910 c-7 -11 52 -16 173 -15 163 3 181 5 156 15 -26 10 -322
11 -329 0z"/>
<path d="M4785 5911 c3 -6 52 -9 231 -15 73 -2 115 8 70 16 -40 8 -306 7 -301
-1z"/>
<path d="M2095 5835 c-204 -72 -297 -110 -293 -120 2 -6 8 -9 13 -7 46 15 392
155 400 163 12 12 20 14 -120 -36z"/>
<path d="M4810 5843 c206 -95 408 -163 329 -112 -24 16 -362 140 -376 138 -5
0 17 -12 47 -26z"/>
<path d="M2220 5839 c-134 -110 -270 -230 -270 -240 0 -20 84 47 220 176 79
75 107 110 50 64z"/>
<path d="M4757 5803 c118 -114 217 -203 225 -203 20 0 3 22 -59 77 -177 156
-271 227 -166 126z"/>
<path d="M2247 5798 c-37 -65 -94 -180 -101 -208 -7 -25 -7 -25 10 -5 22 27
128 245 121 251 -2 3 -16 -14 -30 -38z"/>
<path d="M4680 5834 c0 -28 109 -264 122 -264 11 0 3 27 -27 95 -30 67 -95
183 -95 169z"/>
<path d="M3410 5487 c-3 -3 -32 -7 -65 -11 -105 -10 -207 -42 -330 -103 -148
-72 -223 -136 -191 -162 10 -9 24 -3 60 27 88 73 315 169 449 190 31 5 57 8
57 6 0 -1 -26 -17 -57 -35 -80 -45 -135 -87 -166 -128 -50 -63 -31 -75 65 -42
57 20 136 38 198 46 54 7 140 9 145 3 3 -3 -27 -21 -67 -40 -81 -39 -144 -86
-131 -99 8 -8 37 -12 188 -24 116 -9 258 -35 273 -49 2 -3 -32 -12 -75 -21
-183 -38 -303 -90 -263 -115 7 -5 43 -16 79 -25 84 -21 192 -72 258 -121 29
-21 53 -42 53 -45 0 -4 -21 -9 -47 -13 -98 -13 -273 -82 -340 -132 -21 -16
-33 -34 -33 -49 0 -31 21 -37 42 -10 41 52 237 129 353 140 118 10 145 16 145
31 0 29 -236 184 -344 225 l-57 22 30 13 c42 18 94 23 270 29 85 2 159 9 163
13 14 14 -75 56 -188 91 -108 33 -214 56 -311 66 -35 4 -63 10 -63 14 0 16
121 60 225 81 105 22 121 45 39 58 -54 10 -367 8 -436 -2 -32 -4 -58 -6 -58
-3 0 10 189 87 265 107 94 25 115 38 91 56 -15 11 -216 20 -226 11z"/>
<path d="M2821 5133 c-33 -23 -25 -67 12 -71 36 -4 59 15 55 46 -4 33 -38 46
-67 25z"/>
<path d="M2514 5107 c-6 -17 21 -59 133 -201 34 -44 61 -81 59 -83 -4 -5 -25
-8 -121 -23 -116 -17 -165 -31 -165 -46 0 -17 27 -24 70 -20 58 6 154 18 170
21 8 1 39 6 67 10 29 4 55 10 58 15 10 17 -173 261 -243 324 -19 17 -22 17
-28 3z"/>
<path d="M2795 4520 c-3 -5 5 -31 19 -57 57 -114 53 -155 -24 -254 -148 -189
-179 -244 -204 -357 -15 -68 -22 -264 -12 -347 32 -259 98 -486 257 -890 94
-238 139 -330 159 -330 24 0 14 37 -61 219 -149 358 -229 605 -285 876 -17 83
-30 226 -28 303 4 173 49 291 169 437 95 116 130 186 120 238 -9 50 -41 122
-67 149 -23 25 -34 28 -43 13z"/>
<path d="M3810 3966 c-146 -27 -350 -119 -350 -158 0 -17 39 -7 130 32 158 69
259 91 415 91 122 0 227 -25 340 -80 79 -39 143 -86 132 -98 -3 -3 -39 -7 -79
-9 -96 -6 -175 -28 -273 -75 -120 -59 -203 -125 -182 -145 3 -3 29 -8 59 -10
151 -13 266 -67 336 -155 12 -16 10 -16 -25 -3 -54 19 -308 12 -383 -11 -118
-36 -270 -137 -270 -180 0 -18 46 -20 103 -4 38 10 261 20 252 10 -3 -2 -42
-15 -88 -28 -375 -107 -638 -400 -695 -776 -16 -100 -7 -252 22 -376 19 -87
23 -118 14 -128 -6 -8 -44 -30 -84 -49 -41 -19 -101 -56 -135 -81 -105 -80
-220 -236 -192 -264 16 -16 30 -4 70 58 51 80 152 175 230 215 125 66 189 81
388 94 55 3 103 8 108 11 16 10 6 31 -18 35 -21 4 -180 1 -270 -5 -27 -2 -30
1 -48 58 -30 98 -37 154 -38 315 -1 137 13 218 57 322 100 240 373 472 619
528 28 7 106 11 173 11 137 -1 144 4 76 51 -60 43 -180 69 -302 67 -57 -1
-105 1 -108 4 -7 7 111 52 186 72 84 22 228 23 308 2 34 -9 93 -33 130 -52 56
-30 68 -34 70 -20 10 46 -172 226 -283 280 -62 31 -97 41 -144 44 -27 2 12 33
87 68 142 66 270 84 389 53 29 -8 55 -11 59 -7 12 11 -37 76 -99 133 -64 57
-153 106 -267 145 -54 18 -90 22 -210 24 -80 1 -174 -3 -210 -9z"/>
<path d="M1235 2493 c-36 -9 -279 -131 -363 -183 -84 -53 -122 -95 -122 -138
0 -29 32 -91 60 -117 32 -29 114 -27 163 4 64 39 40 72 -34 46 -58 -21 -69
-19 -106 16 -31 31 -31 33 -17 61 18 34 77 74 245 161 208 110 238 117 276 68
31 -40 11 -84 -62 -137 -20 -14 -27 -25 -22 -37 9 -24 26 -21 78 12 56 35 84
87 74 138 -16 87 -81 127 -170 106z"/>
<path d="M5659 2431 c-57 -57 -57 -119 0 -171 44 -41 179 -110 214 -110 13 0
66 21 117 46 111 53 143 53 198 -2 28 -28 33 -39 27 -62 -3 -15 -14 -35 -22
-44 -20 -22 -78 -23 -113 -3 -40 23 -70 19 -70 -9 0 -50 139 -82 199 -45 44
27 65 74 62 136 -2 51 -113 137 -173 135 -14 0 -62 -19 -105 -41 -43 -22 -89
-43 -103 -46 -32 -8 -153 51 -194 94 -27 28 -28 32 -16 61 20 48 47 53 125 22
55 -22 68 -24 75 -12 12 20 -6 39 -65 66 -75 35 -110 32 -156 -15z"/>
<path d="M5459 2119 c-24 -29 -57 -70 -73 -92 l-30 -40 24 -19 c159 -129 202
-163 359 -281 84 -65 157 -117 162 -117 12 0 139 171 139 186 0 7 -8 15 -17
19 -13 4 -25 -3 -43 -26 -14 -18 -39 -48 -56 -67 l-31 -35 -47 33 c-25 18 -46
36 -46 39 0 4 16 30 36 59 32 49 39 82 16 82 -5 0 -32 -23 -59 -51 l-51 -51
-93 73 c-52 41 -103 81 -113 89 -11 8 -37 31 -58 50 l-39 35 47 67 c42 62 52
98 26 98 -5 0 -29 -23 -53 -51z"/>
<path d="M1445 2115 c-57 -29 -308 -223 -391 -302 -7 -7 -18 -28 -24 -47 -27
-83 37 -170 126 -168 50 0 69 12 274 173 197 154 211 169 204 236 -9 93 -106
149 -189 108z m122 -81 c22 -29 22 -30 4 -60 -34 -56 -383 -324 -421 -324 -23
0 -57 31 -69 63 -9 22 -6 31 15 57 32 37 214 181 324 255 90 60 106 61 147 9z"/>
<path d="M1719 1772 c-41 -43 -119 -127 -175 -187 -56 -61 -116 -126 -133
-145 -57 -61 -83 -99 -76 -110 12 -20 35 -9 95 46 l61 57 26 -24 c15 -13 35
-32 45 -41 22 -22 47 -23 55 -2 4 10 -10 31 -40 61 -54 53 -58 42 60 170 43
46 97 105 120 130 l42 46 56 -51 c57 -52 88 -64 98 -38 5 13 -32 54 -124 134
l-36 32 -74 -78z"/>
<path d="M5169 1791 c-24 -16 -61 -46 -82 -68 l-38 -39 20 -23 c11 -12 73 -79
138 -149 302 -322 325 -344 339 -307 7 17 -10 42 -67 102 l-42 44 26 27 c44
47 67 95 67 139 0 47 -33 95 -141 202 -111 110 -144 121 -220 72z m199 -136
c78 -81 112 -132 112 -171 0 -9 -16 -32 -37 -51 l-36 -35 -89 89 c-49 48 -112
114 -139 145 l-50 57 51 40 c49 39 53 40 78 27 15 -8 65 -53 110 -101z"/>
<path d="M2043 1572 c-53 -72 -294 -433 -322 -483 -27 -49 -29 -58 -17 -68 20
-17 28 -11 77 59 23 33 48 60 56 60 8 0 27 -9 43 -20 41 -29 74 -40 91 -29 11
8 1 21 -45 62 l-58 53 91 135 c50 74 100 145 111 159 22 28 12 30 122 -34 42
-24 49 -26 54 -12 3 9 0 24 -7 33 -27 32 -150 113 -173 113 -1 0 -12 -13 -23
-28z"/>
<path d="M4859 1549 c-35 -23 -76 -52 -91 -66 -24 -23 -25 -28 -13 -47 86
-136 321 -498 338 -519 l22 -29 97 64 c54 35 98 68 98 74 0 6 -6 17 -13 23
-11 8 -28 2 -73 -27 -89 -58 -88 -58 -128 -2 l-36 50 60 40 c33 22 60 47 60
55 0 24 -46 18 -90 -12 l-41 -26 -25 24 c-27 25 -204 284 -204 298 0 5 12 17
28 26 63 41 111 86 105 100 -8 23 -25 18 -94 -26z"/>
<path d="M2370 1368 c-34 -55 -185 -356 -235 -467 -38 -85 -44 -106 -33 -116
22 -21 170 -95 189 -95 30 0 34 22 7 44 -14 12 -49 33 -77 48 -57 31 -62 46
-31 96 23 38 31 39 99 11 41 -18 54 -19 66 -9 8 7 15 16 15 20 0 4 -28 22 -62
40 -35 18 -64 34 -66 35 -6 5 167 355 176 355 6 0 39 -13 74 -30 72 -34 86
-36 95 -14 7 18 -18 38 -98 75 -93 44 -96 44 -119 7z"/>
<path d="M4441 1321 c-41 -15 -76 -32 -78 -38 -5 -14 204 -502 250 -585 21
-39 32 -44 55 -30 10 7 6 26 -18 87 -18 42 -28 80 -23 84 18 16 60 28 93 27
31 -1 38 -6 60 -47 32 -59 49 -79 66 -79 37 0 -5 119 -61 172 -24 22 -35 41
-35 61 0 82 -106 318 -160 355 -42 28 -58 27 -149 -7z m145 -72 c37 -58 104
-230 104 -266 0 -18 -9 -38 -22 -50 -27 -24 -68 -46 -74 -40 -9 9 -143 313
-149 340 -6 24 -3 29 26 42 60 26 86 20 115 -26z"/>
<path d="M2702 1153 c-65 -213 -152 -525 -152 -549 0 -13 162 -64 203 -64 24
0 28 4 25 22 -2 19 -16 26 -75 43 -40 11 -75 23 -78 27 -7 6 13 118 20 118 2
0 33 -7 70 -15 36 -9 70 -13 75 -10 24 15 6 36 -51 56 -33 12 -63 28 -66 35
-5 14 33 156 76 279 33 92 35 93 131 71 66 -16 80 -14 80 9 0 19 -158 75 -213
75 -10 0 -24 -31 -45 -97z"/>
<path d="M4042 1193 c-54 -26 -75 -65 -68 -126 8 -74 15 -112 38 -202 11 -44
22 -91 25 -105 12 -66 59 -184 84 -211 22 -24 35 -29 74 -29 92 0 141 56 139
159 -1 40 -6 58 -19 67 -30 22 -42 2 -37 -60 4 -49 1 -58 -22 -80 -45 -46 -94
-31 -120 36 -19 46 -82 293 -92 355 -3 21 -7 50 -10 66 -5 34 19 83 47 92 32
11 74 -13 92 -51 10 -19 17 -40 17 -47 0 -23 22 -37 41 -27 32 18 2 112 -50
157 -31 28 -91 30 -139 6z"/>
<path d="M3373 1119 c-22 -11 -45 -31 -52 -46 -19 -41 -16 -177 5 -212 16 -27
16 -31 -1 -72 -14 -32 -19 -75 -21 -155 -3 -133 9 -162 79 -189 43 -16 46 -16
91 4 63 27 76 61 83 210 4 94 8 121 25 144 28 40 11 57 -53 53 -54 -3 -61 -7
-66 -36 -2 -15 3 -20 18 -20 21 0 22 -2 16 -129 -3 -71 -10 -138 -16 -150 -14
-25 -52 -36 -78 -22 -38 20 -47 41 -46 109 2 116 11 150 49 184 19 17 34 36
34 42 0 6 -16 22 -35 36 -43 31 -54 62 -43 120 10 57 37 94 71 98 31 4 53 -31
61 -96 3 -23 8 -47 11 -52 10 -16 43 -11 49 8 14 44 -20 154 -53 171 -37 20
-87 20 -128 0z"/>
</g>
</svg>
